<?xml version="1.0" standalone="no"?>
<!DOCTYPE svg PUBLIC "-//W3C//DTD SVG 20010904//EN"
 "http://www.w3.org/TR/2001/REC-SVG-20010904/DTD/svg10.dtd">
<svg version="1.0" xmlns="http://www.w3.org/2000/svg"
 width="512.000000pt" height="512.000000pt" viewBox="0 0 512.000000 512.000000"
 preserveAspectRatio="xMidYMid meet">

<g transform="translate(0.000000,512.000000) scale(0.100000,-0.100000)"
fill="#000000" stroke="none">
<path d="M1290 3659 c-696 -605 -1270 -1106 -1277 -1112 -9 -9 15 -42 109
-147 66 -74 124 -136 128 -138 5 -2 523 443 1152 987 628 545 1150 991 1159
991 9 0 526 -451 1150 -1001 l1134 -1002 65 70 c36 38 98 106 138 150 l72 81
-1275 1108 c-702 610 -1279 1110 -1283 1111 -4 1 -576 -493 -1272 -1098z"/>
<path d="M1610 3326 l-935 -812 -3 -1077 -2 -1077 625 0 625 0 0 565 c0 365 4
583 11 617 14 71 80 202 130 261 22 26 69 67 102 90 191 134 409 152 612 52
179 -89 299 -260 324 -465 7 -50 11 -297 11 -602 l0 -518 625 0 625 0 0 1099
0 1100 -895 790 c-492 435 -901 791 -908 790 -6 0 -433 -366 -947 -813z"/>
</g>
</svg>
